<?xml version="1.0" encoding="UTF-8"?> <svg xmlns="http://www.w3.org/2000/svg" width="152" height="22" viewBox="0 0 152 22" fill="none"><path d="M20.6484 10.2166C21.4329 9.64757 21.0305 8.40703 20.0613 8.40703H15.029C14.5954 8.40703 14.2112 8.12758 14.0776 7.71504L12.5284 2.92992C12.2299 2.00811 10.9262 2.00698 10.6262 2.92827L9.06714 7.71537C8.93285 8.1277 8.54812 8.40649 8.11447 8.4057L3.08403 8.39654C2.11469 8.39477 1.71006 9.63495 2.49393 10.2052L6.56325 13.1655C6.9136 13.4204 7.05998 13.8719 6.92581 14.2838L5.36803 19.0672C5.06785 19.9889 6.12326 20.7557 6.90716 20.1855L10.9754 17.2259C11.3261 16.9708 11.8013 16.9708 12.152 17.2259L16.2276 20.1908C17.0108 20.7606 18.0656 19.9956 17.7673 19.0742L16.2164 14.2841C16.083 13.872 16.2301 13.4208 16.5807 13.1665L20.6484 10.2166Z" fill="#FBC01A"></path><path d="M53.7919 10.2166C54.5765 9.64757 54.174 8.40703 53.2049 8.40703H48.1725C47.7389 8.40703 47.3547 8.12758 47.2211 7.71504L45.6719 2.92992C45.3735 2.00811 44.0697 2.00698 43.7697 2.92827L42.2107 7.71537C42.0764 8.1277 41.6917 8.40649 41.258 8.4057L36.2276 8.39654C35.2582 8.39477 34.8536 9.63495 35.6375 10.2052L39.7068 13.1655C40.0572 13.4204 40.2035 13.8719 40.0694 14.2838L38.5116 19.0672C38.2114 19.9889 39.2668 20.7557 40.0507 20.1855L44.119 17.2259C44.4697 16.9708 44.9448 16.9708 45.2955 17.2259L49.3712 20.1908C50.1543 20.7606 51.2091 19.9956 50.9108 19.0742L49.36 14.2841C49.2266 13.872 49.3736 13.4208 49.7243 13.1665L53.7919 10.2166Z" fill="#FBC01A"></path><path d="M86.9355 10.2166C87.7201 9.64757 87.3176 8.40703 86.3484 8.40703H81.3161C80.8825 8.40703 80.4983 8.12758 80.3647 7.71504L78.8155 2.92992C78.5171 2.00811 77.2133 2.00698 76.9133 2.92827L75.3542 7.71537C75.22 8.1277 74.8352 8.40649 74.4016 8.4057L69.3711 8.39654C68.4018 8.39477 67.9972 9.63495 68.781 10.2052L72.8504 13.1655C73.2007 13.4204 73.3471 13.8719 73.2129 14.2838L71.6551 19.0672C71.355 19.9889 72.4104 20.7557 73.1943 20.1855L77.2625 17.2259C77.6132 16.9708 78.0884 16.9708 78.4391 17.2259L82.5147 20.1908C83.2979 20.7606 84.3527 19.9956 84.0544 19.0742L82.5035 14.2841C82.3701 13.872 82.5172 13.4208 82.8678 13.1665L86.9355 10.2166Z" fill="#FBC01A"></path><path d="M120.079 10.2166C120.863 9.64757 120.461 8.40703 119.492 8.40703H114.459C114.026 8.40703 113.642 8.12758 113.508 7.71504L111.959 2.92992C111.66 2.00811 110.357 2.00698 110.057 2.92827L108.498 7.71537C108.363 8.1277 107.979 8.40649 107.545 8.4057L102.514 8.39654C101.545 8.39477 101.14 9.63495 101.924 10.2052L105.994 13.1655C106.344 13.4204 106.49 13.8719 106.356 14.2838L104.798 19.0672C104.498 19.9889 105.554 20.7557 106.338 20.1855L110.406 17.2259C110.757 16.9708 111.232 16.9708 111.582 17.2259L115.658 20.1908C116.441 20.7606 117.496 19.9956 117.198 19.0742L115.647 14.2841C115.513 13.872 115.661 13.4208 116.011 13.1665L120.079 10.2166Z" fill="#FBC01A"></path><path d="M151.168 9.90139C151.953 9.33241 151.55 8.09187 150.581 8.09187H145.539C145.105 8.09187 144.721 7.81242 144.587 7.39988L143.035 2.60532C142.737 1.68351 141.433 1.68238 141.133 2.60367L139.571 7.40021C139.436 7.81254 139.052 8.09133 138.618 8.09055L133.578 8.08136C132.608 8.0796 132.204 9.31978 132.988 9.89002L137.065 12.8562C137.415 13.1111 137.562 13.5626 137.428 13.9745L135.867 18.7673C135.567 19.689 136.622 20.4559 137.406 19.8856L141.482 16.9202C141.833 16.6651 142.308 16.6651 142.659 16.9202L146.742 19.8909C147.526 20.4607 148.58 19.6957 148.282 18.7743L146.728 13.9747C146.595 13.5626 146.742 13.1115 147.092 12.8572L151.168 9.90139Z" fill="#FBC01A"></path></svg> 